<svg class="icon" xmlns="http://www.w3.org/2000/svg" xmlns:xlink="http://www.w3.org/1999/xlink" x="0px" y="0px"
   viewBox="0 0 28 28" enable-background="new 0 0 28 28" xml:space="preserve">
<path id="TikTok" fill="#D1CECC" d="M14,0C6.27,0,0,6.27,0,14s6.27,14,14,14s14-6.27,14-14S21.73,0,14,0z M18.8,9.2v2.4
  c-0.7-0.2-1.4-0.3-2.1-0.3c-2.3,0-4.2,1.9-4.2,4.2v5.1c0,2.3-1.9,4.2-4.2,4.2S4.1,22.9,4.1,20.6s1.9-4.2,4.2-4.2
  c0.4,0,0.8,0.1,1.2,0.2v2.4c-0.4-0.1-0.8-0.2-1.2-0.2c-1,0-1.8,0.8-1.8,1.8s0.8,1.8,1.8,1.8s1.8-0.8,1.8-1.8v-9.3
  c0-2.3,1.9-4.2,4.2-4.2c0.7,0,1.4,0.2,2.1,0.5V9.2H18.8z"/>
</svg>
