<svg class="icon" xmlns="http://www.w3.org/2000/svg" xmlns:xlink="http://www.w3.org/1999/xlink" x="0px" y="0px"
   viewBox="0 0 28 28" enable-background="new 0 0 28 28" xml:space="preserve">
<path id="Snapchat" fill="#D1CECC" d="M14,0C6.27,0,0,6.27,0,14s6.27,14,14,14s14-6.27,14-14S21.73,0,14,0z M18.2,18.1
  c-0.4,0.2-0.9,0.3-1.3,0.4c-0.2,0.1-0.4,0.2-0.5,0.4c-0.1,0.2-0.1,0.4,0,0.6c0.1,0.2,0.3,0.3,0.5,0.3c0.3,0,0.6-0.1,0.9-0.2
  c-0.5,0.5-1.2,0.8-2,0.8c-0.3,0-0.6,0-0.9-0.1c-0.3,0.2-0.7,0.3-1.1,0.3c-0.4,0-0.8-0.1-1.1-0.3c-0.3,0.1-0.6,0.1-0.9,0.1
  c-0.8,0-1.5-0.3-2-0.8c0.3,0.1,0.6,0.2,0.9,0.2c0.2,0,0.4-0.1,0.5-0.3c0.1-0.2,0.1-0.4,0-0.6c-0.1-0.2-0.3-0.3-0.5-0.4
  c-0.4-0.1-0.9-0.2-1.3-0.4c-0.8-0.4-1.2-1-1.2-1.7c0-0.3,0.1-0.5,0.3-0.7c0.2-0.2,0.5-0.2,0.7-0.1c0.4,0.1,0.8,0.3,1.2,0.4
  c0.1-1.2,0.5-2.3,1.2-3.2c0.8-1.1,2-1.8,3.3-1.8s2.5,0.7,3.3,1.8c0.7,0.9,1.1,2,1.2,3.2c0.4-0.1,0.8-0.3,1.2-0.4
  c0.2-0.1,0.5,0,0.7,0.1c0.2,0.2,0.3,0.4,0.3,0.7C19.4,17.1,19,17.7,18.2,18.1z"/>
</svg>
