<svg class="icon" xmlns="http://www.w3.org/2000/svg" xmlns:xlink="http://www.w3.org/1999/xlink" x="0px" y="0px"
   viewBox="0 0 28 28" enable-background="new 0 0 28 28" xml:space="preserve">
<path id="SoundCloud" fill="#D1CECC" d="M14,0C6.27,0,0,6.27,0,14s6.27,14,14,14s14-6.27,14-14S21.73,0,14,0z M20.5,16.2
  c-0.2,0.3-0.5,0.5-0.9,0.5H8.1c-0.6,0-1.1-0.5-1.1-1.1v-0.2c0-0.6,0.5-1.1,1.1-1.1h0.4c0.2,0,0.4-0.2,0.4-0.4V13
  c0-0.2-0.2-0.4-0.4-0.4H8.1c-0.6,0-1.1-0.5-1.1-1.1v-0.2c0-0.6,0.5-1.1,1.1-1.1h0.6c0.2,0,0.4-0.2,0.4-0.4v-0.4
  c0-0.2-0.2-0.4-0.4-0.4H8.1c-0.6,0-1.1-0.5-1.1-1.1V8.1c0-0.6,0.5-1.1,1.1-1.1h0.8c0.2,0,0.4-0.2,0.4-0.4V6.1
  c0-0.2,0.2-0.4,0.4-0.4h0.3c0.2,0,0.4,0.2,0.4,0.4v0.6c0,0.2,0.2,0.4,0.4,0.4h1.1c0.6,0,1.1,0.5,1.1,1.1v0.2
  c0,0.6-0.5,1.1-1.1,1.1h-0.3c-0.2,0-0.4,0.2-0.4,0.4v0.4c0,0.2,0.2,0.4,0.4,0.4h0.5c0.6,0,1.1,0.5,1.1,1.1v0.2
  c0,0.6-0.5,1.1-1.1,1.1h-0.4c-0.2,0-0.4,0.2-0.4,0.4v0.2c0,0.2,0.2,0.4,0.4,0.4h0.5c0.6,0,1.1,0.5,1.1,1.1v0.2
  c0,0.6-0.5,1.1-1.1,1.1h-0.3c-0.2,0-0.4,0.2-0.4,0.4v0.2c0,0.2,0.2,0.4,0.4,0.4h9.5c0.4,0,0.7-0.2,0.9-0.5
  c0.2-0.3,0.2-0.7,0-1C20.7,16.9,20.7,16.5,20.5,16.2z"/>
</svg>
