<svg class="icon" xmlns="http://www.w3.org/2000/svg" xmlns:xlink="http://www.w3.org/1999/xlink" x="0px" y="0px"
   viewBox="0 0 28 28" enable-background="new 0 0 28 28" xml:space="preserve">
<path id="VK" fill="#D1CECC" d="M14,0C6.27,0,0,6.27,0,14s6.27,14,14,14s14-6.27,14-14S21.73,0,14,0z M20.1,17.8h-1.8
  c-0.5,0-0.7-0.3-1.7-1.4c-0.9-0.9-1.3-1-1.5-1c-0.3,0-0.4,0.1-0.4,0.5v1.3c0,0.4-0.1,0.6-1.1,0.6H12c-0.9,0-1.2-0.2-1.2-0.9
  c0-1.2,1.8-2.9,1.8-2.9s-1.7-1.6-1.7-2.3c0-0.4,0.2-0.6,0.9-0.6h1.8c0.4,0,0.5,0.2,0.6,0.4c0.1,0.3,0.8,1.3,1.1,1.7
  c0.3,0.4,0.5,0.5,0.7,0.5c0.2,0,0.2-0.1,0.2-0.6v-1.5c0-0.5,0.1-0.7,0.8-0.7h1.8c0.5,0,0.6,0.2,0.6,0.5c0,0.5-0.6,1.2-0.6,1.2
  s-0.4,0.3-0.1,0.7c0.2,0.3,1,1,1.4,1.6c0.4,0.6,0.7,1.1,0.7,1.1S20.6,17.8,20.1,17.8z"/>
</svg>
