<svg class="icon" xmlns="http://www.w3.org/2000/svg" xmlns:xlink="http://www.w3.org/1999/xlink" x="0px" y="0px"
   viewBox="0 0 28 28" enable-background="new 0 0 28 28" xml:space="preserve">
<path id="Spotify" fill="#D1CECC" d="M14,0C6.27,0,0,6.27,0,14s6.27,14,14,14s14-6.27,14-14S21.73,0,14,0z M20.8,18.2
  c-0.2,0.3-0.6,0.4-0.9,0.2c-2.5-1.5-5.6-1.8-9.3-1c-0.4,0.1-0.7-0.2-0.8-0.5c-0.1-0.4,0.2-0.7,0.5-0.8c4-0.9,7.5-0.5,10.4,1.2
  C20.9,17.4,21,17.9,20.8,18.2z M21.4,15.8c-0.2,0.4-0.7,0.5-1.1,0.3c-2.9-1.8-7.3-2.3-10.8-1.2c-0.4,0.1-0.9-0.1-1-0.5
  c-0.1-0.4,0.1-0.9,0.5-1c4-1.2,8.8-0.6,12.2,1.5C21.6,15,21.7,15.5,21.4,15.8z M21.9,13.2c-0.3,0.5-0.9,0.6-1.4,0.3
  c-3.3-2-8.7-2.2-11.8-1.2c-0.5,0.2-1.1-0.1-1.3-0.6c-0.2-0.5,0.1-1.1,0.6-1.3c3.5-1.1,9.5-0.8,13.3,1.4
  C22,12.2,22.2,12.8,21.9,13.2z"/>
</svg>
