<svg class="icon" xmlns="http://www.w3.org/2000/svg" xmlns:xlink="http://www.w3.org/1999/xlink" x="0px" y="0px"
   viewBox="0 0 28 28" enable-background="new 0 0 28 28" xml:space="preserve">
<path id="Mastodon" fill="#D1CECC" d="M14,0C6.27,0,0,6.27,0,14s6.27,14,14,14s14-6.27,14-14S21.73,0,14,0z M20.58,17.42
  c-0.18,0.82-0.86,1.46-1.69,1.58c-1.46,0.21-2.87,0.12-4.24-0.28c-0.31-0.1-0.64-0.1-0.95,0c-1.37,0.4-2.78,0.49-4.24,0.28
  c-0.83-0.12-1.51-0.76-1.69-1.58c-0.34-1.55-0.34-3.14,0-4.69c0.18-0.82,0.86-1.46,1.69-1.58c1.35-0.2,2.66-0.1,3.92,0.28
  c0.32,0.1,0.66,0.1,0.98,0c1.26-0.38,2.57-0.48,3.92-0.28c0.83,0.12,1.51,0.76,1.69,1.58C20.92,14.28,20.92,15.87,20.58,17.42z
   M11.18,15.55v2.36c0,0.36,0.29,0.65,0.65,0.65h0.52c0.36,0,0.65-0.29,0.65-0.65v-2.36c0-0.36-0.29-0.65-0.65-0.65h-0.52
  C11.47,14.9,11.18,15.19,11.18,15.55z M15.32,15.55v2.36c0,0.36,0.29,0.65,0.65,0.65h0.52c0.36,0,0.65-0.29,0.65-0.65v-2.36
  c0-0.36-0.29-0.65-0.65-0.65h-0.52C15.61,14.9,15.32,15.19,15.32,15.55z"/>
</svg>
